g LAD2_002
v -1.620188 5.176946 -0.5648003
v -1.620188 5.176946 -0.5296468
v -1.624875 5.176946 -0.5648003
v -1.624875 5.176946 -0.5296468
v -1.624875 5.171868 -0.569878
v -1.624875 5.176946 -0.5648003
v -1.624875 5.171868 -0.5273032
v -1.624875 5.176946 -0.5296468
v -1.624875 5.171868 -0.5273032
v -1.624875 5.171868 -0.4874625
v -1.620188 5.171868 -0.5273032
v -1.620188 5.171868 -0.4874625
v -1.624875 5.226942 -0.5648004
v -1.624875 5.226942 -0.5296468
v -1.620188 5.226942 -0.5648004
v -1.620188 5.226942 -0.5296468
v -1.624875 5.171868 -0.4874625
v -1.624875 5.171868 -0.4499654
v -1.620188 5.171868 -0.4874625
v -1.620188 5.171868 -0.4499654
v -1.624875 5.23202 -0.4499654
v -1.624875 5.226942 -0.4499654
v -1.624875 5.23202 -0.4874625
v -1.624875 5.226942 -0.4847283
v -1.624875 5.23202 -0.4874625
v -1.620188 5.23202 -0.4874625
v -1.624875 5.23202 -0.4499654
v -1.620188 5.23202 -0.4499654
v -1.624875 5.171868 -0.569878
v -1.620188 5.171868 -0.5648003
v -1.620188 5.171868 -0.569878
v -1.620188 5.171868 -0.5273032
v -1.624875 5.171868 -0.5273032
v -1.624875 5.23202 -0.4874625
v -1.624875 5.226942 -0.4898061
v -1.624875 5.23202 -0.5273032
v -1.624875 5.226942 -0.5249596
v -1.624875 5.23202 -0.5273032
v -1.624875 5.226942 -0.5296468
v -1.624875 5.23202 -0.569878
v -1.624875 5.226942 -0.5648004
v -1.624875 5.226942 -0.569878
v -1.624875 5.226942 -0.5249596
v -1.624875 5.226942 -0.4898061
v -1.620188 5.226942 -0.5249596
v -1.620188 5.226942 -0.4898061
v -1.620188 5.176946 -0.5249596
v -1.620188 5.176946 -0.4898061
v -1.624875 5.176946 -0.5249596
v -1.624875 5.176946 -0.4898061
v -1.624875 5.226942 -0.5296468
v -1.624875 5.226942 -0.5249596
v -1.624875 5.176946 -0.5296468
v -1.624875 5.176946 -0.5249596
v -1.624875 5.176946 -0.5648003
v -1.624875 5.176946 -0.569878
v -1.624875 5.226942 -0.5648004
v -1.624875 5.226942 -0.569878
v -1.620188 5.176946 -0.4847283
v -1.620188 5.176946 -0.4499654
v -1.624875 5.176946 -0.4847283
v -1.624875 5.176946 -0.4499654
v -1.624875 5.226942 -0.4847283
v -1.624875 5.226942 -0.4499654
v -1.620188 5.226942 -0.4847283
v -1.620188 5.226942 -0.4499654
v -1.624875 5.23202 -0.5273032
v -1.620188 5.23202 -0.5273032
v -1.624875 5.23202 -0.4874625
v -1.620188 5.23202 -0.4874625
v -1.624875 5.171868 -0.4874625
v -1.624875 5.176946 -0.4847283
v -1.624875 5.171868 -0.4499654
v -1.624875 5.176946 -0.4499654
v -1.624875 5.226942 -0.4847283
v -1.620188 5.226942 -0.4847283
v -1.624875 5.176946 -0.4847283
v -1.620188 5.176946 -0.4847283
v -1.620188 5.226942 -0.4898061
v -1.624875 5.226942 -0.4898061
v -1.620188 5.176946 -0.4898061
v -1.624875 5.176946 -0.4898061
v -1.624875 5.226942 -0.5249596
v -1.620188 5.226942 -0.5249596
v -1.624875 5.176946 -0.5249596
v -1.620188 5.176946 -0.5249596
v -1.624875 5.226942 -0.5296468
v -1.624875 5.176946 -0.5296468
v -1.620188 5.226942 -0.5296468
v -1.620188 5.176946 -0.5296468
v -1.624875 5.176946 -0.4847283
v -1.624875 5.171868 -0.4874625
v -1.624875 5.176946 -0.4898061
v -1.624875 5.226942 -0.5648004
v -1.620188 5.226942 -0.5648004
v -1.624875 5.176946 -0.5648003
v -1.620188 5.176946 -0.5648003
v -1.624875 5.226942 -0.569878
v -1.624875 5.176946 -0.569878
v -1.620188 5.226942 -0.569878
v -1.620188 5.176946 -0.569878
v -1.624875 5.226942 -0.4898061
v -1.624875 5.226942 -0.4847283
v -1.624875 5.176946 -0.4898061
v -1.624875 5.176946 -0.4847283
v -1.624875 5.226942 -0.4898061
v -1.624875 5.23202 -0.4874625
v -1.624875 5.226942 -0.4847283
v -1.624875 5.226942 -0.5296468
v -1.624875 5.23202 -0.5273032
v -1.624875 5.226942 -0.5249596
v -1.624875 5.176946 -0.569878
v -1.624875 5.176946 -0.5648003
v -1.624875 5.171868 -0.569878
v -1.624875 5.171868 -0.5273032
v -1.624875 5.176946 -0.5249596
v -1.624875 5.171868 -0.4874625
v -1.624875 5.176946 -0.4898061
v -1.624875 5.176946 -0.5249596
v -1.624875 5.171868 -0.5273032
v -1.624875 5.176946 -0.5296468
v -1.624875 5.23202 -0.569878
v -1.620188 5.23202 -0.5648004
v -1.624875 5.23202 -0.5273032
v -1.620188 5.23202 -0.5273032
v -1.620188 5.23202 -0.569878
v -1.599877 5.174602 -0.4886343
v -1.620188 5.174602 -0.4886343
v -1.599877 5.172649 -0.4859001
v -1.620188 5.172649 -0.4859001
v -1.599877 5.176164 -0.4859001
v -1.620188 5.176164 -0.4859001
v -1.599877 5.174602 -0.4886343
v -1.620188 5.174602 -0.4886343
v -1.599877 5.172649 -0.4859001
v -1.620188 5.172649 -0.4859001
v -1.599877 5.176164 -0.4859001
v -1.620188 5.176164 -0.4859001
v -1.599877 5.229285 -0.4886343
v -1.620188 5.229285 -0.4886343
v -1.599877 5.227723 -0.4859001
v -1.620188 5.227723 -0.4859001
v -1.599877 5.231238 -0.4859001
v -1.620188 5.231238 -0.4859001
v -1.599877 5.229285 -0.4886343
v -1.620188 5.229285 -0.4886343
v -1.599877 5.227723 -0.4859001
v -1.620188 5.227723 -0.4859001
v -1.599877 5.231238 -0.4859001
v -1.620188 5.231238 -0.4859001
vt 0.039063 0.375
vt 0.335938 0.375
vt 0.039063 0.339844
vt 0.335938 0.339844
vt 0.007813 0.339844
vt 0.042969 0.304688
vt 0.367188 0.339844
vt 0.335938 0.304688
vt 0.039063 0.339844
vt 0.335938 0.339844
vt 0.039063 0.375
vt 0.335938 0.375
vt 0.015625 0.304688
vt 0.355469 0.304688
vt 0.011719 0.257813
vt 0.355469 0.257813
vt 0.039063 0.339844
vt 0.335938 0.339844
vt 0.039063 0.375
vt 0.335938 0.375
vt 0.367188 0.339844
vt 0.335938 0.304688
vt 0.007813 0.339844
vt 0.042969 0.304688
vt 0.039063 0.339844
vt 0.039063 0.375
vt 0.335938 0.339844
vt 0.335938 0.375
vt 0.039063 0.339844
vt 0.074219 0.375
vt 0.039063 0.375
vt 0.335938 0.375
vt 0.335938 0.339844
vt 0.367188 0.339844
vt 0.335938 0.304688
vt 0.007813 0.339844
vt 0.042969 0.304688
vt 0.335938 0.339844
vt 0.304688 0.304688
vt 0.039063 0.339844
vt 0.074219 0.304688
vt 0.039063 0.304688
vt 0.015625 0.304688
vt 0.355469 0.304688
vt 0.011719 0.257813
vt 0.355469 0.257813
vt 0.039063 0.375
vt 0.335938 0.375
vt 0.039063 0.339844
vt 0.335938 0.339844
vt 0.378906 0.285156
vt 0.378906 0.347656
vt 0.738281 0.289063
vt 0.738281 0.347656
vt 0.378906 0.285156
vt 0.378906 0.347656
vt 0.738281 0.289063
vt 0.738281 0.347656
vt 0.039063 0.375
vt 0.335938 0.375
vt 0.039063 0.339844
vt 0.335938 0.339844
vt 0.015625 0.304688
vt 0.355469 0.304688
vt 0.011719 0.257813
vt 0.355469 0.257813
vt 0.039063 0.339844
vt 0.039063 0.375
vt 0.335938 0.339844
vt 0.335938 0.375
vt 0.335938 0.304688
vt 0.367188 0.339844
vt 0.042969 0.304688
vt 0.007813 0.339844
vt 0.738281 0.289063
vt 0.738281 0.257813
vt 0.378906 0.285156
vt 0.378906 0.257813
vt 0.738281 0.375
vt 0.738281 0.347656
vt 0.378906 0.375
vt 0.378906 0.347656
vt 0.738281 0.289063
vt 0.738281 0.257813
vt 0.378906 0.285156
vt 0.378906 0.257813
vt 0.738281 0.347656
vt 0.378906 0.347656
vt 0.738281 0.375
vt 0.378906 0.375
vt 0.960938 0.660156
vt 0.917969 0.691406
vt 0.964844 0.710938
vt 0.738281 0.289063
vt 0.738281 0.257813
vt 0.378906 0.285156
vt 0.378906 0.257813
vt 0.738281 0.347656
vt 0.378906 0.347656
vt 0.738281 0.375
vt 0.378906 0.375
vt 0.378906 0.285156
vt 0.378906 0.347656
vt 0.738281 0.289063
vt 0.738281 0.347656
vt 0.039063 0.304688
vt 0.058594 0.363281
vt 0.074219 0.304688
vt 0.039063 0.304688
vt 0.058594 0.363281
vt 0.074219 0.304688
vt 0.964844 0.710938
vt 0.960938 0.660156
vt 0.917969 0.691406
vt 0.367188 0.339844
vt 0.335938 0.304688
vt 0.007813 0.339844
vt 0.042969 0.304688
vt 0.960938 0.660156
vt 0.917969 0.691406
vt 0.964844 0.710938
vt 0.039063 0.339844
vt 0.078125 0.375
vt 0.335938 0.339844
vt 0.335938 0.375
vt 0.039063 0.375
vt 0.378906 0.347656
vt 0.742188 0.347656
vt 0.378906 0.285156
vt 0.746094 0.285156
vt 0.378906 0.347656
vt 0.742188 0.347656
vt 0.378906 0.285156
vt 0.746094 0.285156
vt 0.378906 0.347656
vt 0.742188 0.347656
vt 0.378906 0.285156
vt 0.746094 0.285156
vt 0.378906 0.347656
vt 0.742188 0.347656
vt 0.378906 0.285156
vt 0.746094 0.285156
vt 0.378906 0.347656
vt 0.742188 0.347656
vt 0.378906 0.285156
vt 0.746094 0.285156
vt 0.378906 0.347656
vt 0.742188 0.347656
vt 0.378906 0.285156
vt 0.746094 0.285156
vn 0 1 0
vn 0 1 0
vn 0 1 0
vn 0 1 0
vn -1 0 0
vn -1 0 0
vn -1 0 0
vn -1 0 0
vn 0 -1 0
vn 0 -1 0
vn 0 -1 0
vn 0 -1 0
vn 0 -1 0
vn 0 -1 0
vn 0 -1 0
vn 0 -1 0
vn 0 -1 0
vn 0 -1 0
vn 0 -1 0
vn 0 -1 0
vn -1 0 0
vn -1 0 0
vn -1 0 0
vn -1 0 0
vn 0 1 0
vn 0 1 0
vn 0 1 0
vn 0 1 0
vn 0 -1 0
vn 0 -1 0
vn 0 -1 0
vn 0 -1 0
vn 0 -1 0
vn -1 0 0
vn -1 0 0
vn -1 0 0
vn -1 0 0
vn -1 0 0
vn -1 0 0
vn -1 0 0
vn -1 0 0
vn -1 0 0
vn 0 -1 0
vn 0 -1 0
vn 0 -1 0
vn 0 -1 0
vn 0 1 0
vn 0 1 0
vn 0 1 0
vn 0 1 0
vn -1 0 0
vn -1 0 0
vn -1 0 0
vn -1 0 0
vn -1 0 0
vn -1 0 0
vn -1 0 0
vn -1 0 0
vn 0 1 0
vn 0 1 0
vn 0 1 0
vn 0 1 0
vn 0 -1 0
vn 0 -1 0
vn 0 -1 0
vn 0 -1 0
vn 0 1 0
vn 0 1 0
vn 0 1 0
vn 0 1 0
vn -1 0 0
vn -1 0 0
vn -1 0 0
vn -1 0 0
vn 0 0 1
vn 0 0 1
vn 0 0 1
vn 0 0 1
vn 0 0 -1
vn 0 0 -1
vn 0 0 -1
vn 0 0 -1
vn 0 0 1
vn 0 0 1
vn 0 0 1
vn 0 0 1
vn 0 0 -1
vn 0 0 -1
vn 0 0 -1
vn 0 0 -1
vn -1 0 0
vn -1 0 0
vn -1 0 0
vn 0 0 1
vn 0 0 1
vn 0 0 1
vn 0 0 1
vn 0 0 -1
vn 0 0 -1
vn 0 0 -1
vn 0 0 -1
vn -1 0 0
vn -1 0 0
vn -1 0 0
vn -1 0 0
vn -1 0 0
vn -1 0 0
vn -1 0 0
vn -1 0 0
vn -1 0 0
vn -1 0 0
vn -1 0 0
vn -1 0 0
vn -1 0 0
vn -1 0 0
vn -1 0 0
vn -1 0 0
vn -1 0 0
vn -1 0 0
vn -1 0 0
vn -1 0 0
vn 0 1 0
vn 0 1 0
vn 0 1 0
vn 0 1 0
vn 0 1 0
vn 0 -0.8137143 -0.5812649
vn 0 -0.8137143 -0.5812649
vn 0 -0.8137143 -0.5812649
vn 0 -0.8137143 -0.5812649
vn 0 0.8682803 -0.4960738
vn 0 0.8682803 -0.4960738
vn 0 0.8682803 -0.4960738
vn 0 0.8682803 -0.4960738
vn 0 0 1
vn 0 0 1
vn 0 0 1
vn 0 0 1
vn 0 -0.8682283 -0.4961649
vn 0 -0.8682283 -0.4961649
vn 0 -0.8682283 -0.4961649
vn 0 -0.8682283 -0.4961649
vn 0 0.8137142 -0.5812652
vn 0 0.8137142 -0.5812652
vn 0 0.8137142 -0.5812652
vn 0 0.8137142 -0.5812652
vn 0 0 1
vn 0 0 1
vn 0 0 1
vn 0 0 1
g LAD2_002_0
f 3/3/3 2/2/2 1/1/1
f 4/4/4 2/2/2 3/3/3
f 7/7/7 6/6/6 5/5/5
f 8/8/8 6/6/6 7/7/7
f 11/11/11 10/10/10 9/9/9
f 12/12/12 10/10/10 11/11/11
f 15/15/15 14/14/14 13/13/13
f 16/16/16 14/14/14 15/15/15
f 19/19/19 18/18/18 17/17/17
f 20/20/20 18/18/18 19/19/19
f 23/23/23 22/22/22 21/21/21
f 24/24/24 22/22/22 23/23/23
f 27/27/27 26/26/26 25/25/25
f 28/28/28 26/26/26 27/27/27
f 31/31/31 30/30/30 29/29/29
f 30/30/30 32/32/32 29/29/29
f 29/29/29 32/32/32 33/33/33
f 36/36/36 35/35/35 34/34/34
f 37/37/37 35/35/35 36/36/36
f 40/40/40 39/39/39 38/38/38
f 41/41/41 39/39/39 40/40/40
f 42/42/42 41/41/41 40/40/40
f 45/45/45 44/44/44 43/43/43
f 46/46/46 44/44/44 45/45/45
f 49/49/49 48/48/48 47/47/47
f 50/50/50 48/48/48 49/49/49
f 53/53/53 52/52/52 51/51/51
f 54/54/54 52/52/52 53/53/53
f 57/57/57 56/56/56 55/55/55
f 58/58/58 56/56/56 57/57/57
f 61/61/61 60/60/60 59/59/59
f 62/62/62 60/60/60 61/61/61
f 65/65/65 64/64/64 63/63/63
f 66/66/66 64/64/64 65/65/65
f 69/69/69 68/68/68 67/67/67
f 70/70/70 68/68/68 69/69/69
f 73/73/73 72/72/72 71/71/71
f 74/74/74 72/72/72 73/73/73
f 77/77/77 76/76/76 75/75/75
f 78/78/78 76/76/76 77/77/77
f 81/81/81 80/80/80 79/79/79
f 82/82/82 80/80/80 81/81/81
f 85/85/85 84/84/84 83/83/83
f 86/86/86 84/84/84 85/85/85
f 89/89/89 88/88/88 87/87/87
f 90/90/90 88/88/88 89/89/89
f 93/93/93 92/92/92 91/91/91
f 96/96/96 95/95/95 94/94/94
f 97/97/97 95/95/95 96/96/96
f 100/100/100 99/99/99 98/98/98
f 101/101/101 99/99/99 100/100/100
f 104/104/104 103/103/103 102/102/102
f 105/105/105 103/103/103 104/104/104
f 108/108/108 107/107/107 106/106/106
f 111/111/111 110/110/110 109/109/109
f 114/114/114 113/113/113 112/112/112
f 117/117/117 116/116/116 115/115/115
f 118/118/118 116/116/116 117/117/117
f 121/121/121 120/120/120 119/119/119
f 124/124/124 123/123/123 122/122/122
f 125/125/125 123/123/123 124/124/124
f 126/126/126 122/122/122 123/123/123
f 129/129/129 128/128/128 127/127/127
f 130/130/130 128/128/128 129/129/129
f 133/133/133 132/132/132 131/131/131
f 134/134/134 132/132/132 133/133/133
f 137/137/137 136/136/136 135/135/135
f 138/138/138 136/136/136 137/137/137
f 141/141/141 140/140/140 139/139/139
f 142/142/142 140/140/140 141/141/141
f 145/145/145 144/144/144 143/143/143
f 146/146/146 144/144/144 145/145/145
f 149/149/149 148/148/148 147/147/147
f 150/150/150 148/148/148 149/149/149
